<mxfile host="app.diagrams.net" modified="2023-10-04T15:27:20.077Z" agent="Mozilla/5.0 (Windows NT 10.0; Win64; x64) AppleWebKit/537.36 (KHTML, like Gecko) Chrome/117.0.0.0 Safari/537.36" etag="2Mrus1ZY7j01NJK7UmIv" version="21.5.2" type="device">
  <diagram name="Page-1" id="b98fa263-6416-c6ec-5b7d-78bf54ef71d0">
    <mxGraphModel dx="1167" dy="663" grid="1" gridSize="10" guides="1" tooltips="1" connect="1" arrows="1" fold="1" page="1" pageScale="1.5" pageWidth="1169" pageHeight="826" background="none" math="0" shadow="0">
      <root>
        <mxCell id="0" style=";html=1;" />
        <mxCell id="1" style=";html=1;" parent="0" />
        <mxCell id="qzfSgBD3QP0IytyJ2jAo-71" style="edgeStyle=orthogonalEdgeStyle;rounded=0;orthogonalLoop=1;jettySize=auto;html=1;exitX=0.5;exitY=1;exitDx=0;exitDy=0;entryX=0.5;entryY=0;entryDx=0;entryDy=0;" edge="1" parent="1" source="qzfSgBD3QP0IytyJ2jAo-3" target="qzfSgBD3QP0IytyJ2jAo-10">
          <mxGeometry relative="1" as="geometry" />
        </mxCell>
        <mxCell id="qzfSgBD3QP0IytyJ2jAo-72" style="edgeStyle=orthogonalEdgeStyle;rounded=0;orthogonalLoop=1;jettySize=auto;html=1;exitX=0.5;exitY=1;exitDx=0;exitDy=0;entryX=0.5;entryY=0;entryDx=0;entryDy=0;" edge="1" parent="1" source="qzfSgBD3QP0IytyJ2jAo-3" target="qzfSgBD3QP0IytyJ2jAo-7">
          <mxGeometry relative="1" as="geometry" />
        </mxCell>
        <mxCell id="qzfSgBD3QP0IytyJ2jAo-96" style="edgeStyle=orthogonalEdgeStyle;rounded=0;orthogonalLoop=1;jettySize=auto;html=1;exitX=1;exitY=0.5;exitDx=0;exitDy=0;entryX=0.75;entryY=0;entryDx=0;entryDy=0;" edge="1" parent="1" source="qzfSgBD3QP0IytyJ2jAo-3" target="qzfSgBD3QP0IytyJ2jAo-70">
          <mxGeometry relative="1" as="geometry">
            <Array as="points">
              <mxPoint x="840" y="520" />
              <mxPoint x="840" y="310" />
              <mxPoint x="460" y="310" />
            </Array>
          </mxGeometry>
        </mxCell>
        <mxCell id="qzfSgBD3QP0IytyJ2jAo-3" value="Страница проекта" style="rounded=1;whiteSpace=wrap;html=1;fontFamily=Open Sans;fontSource=https%3A%2F%2Ffonts.googleapis.com%2Fcss%3Ffamily%3DOpen%2BSans;" vertex="1" parent="1">
          <mxGeometry x="660" y="490" width="120" height="60" as="geometry" />
        </mxCell>
        <mxCell id="qzfSgBD3QP0IytyJ2jAo-82" style="edgeStyle=orthogonalEdgeStyle;rounded=0;orthogonalLoop=1;jettySize=auto;html=1;exitX=0.5;exitY=1;exitDx=0;exitDy=0;entryX=0.5;entryY=1;entryDx=0;entryDy=0;" edge="1" parent="1" source="qzfSgBD3QP0IytyJ2jAo-7" target="qzfSgBD3QP0IytyJ2jAo-70">
          <mxGeometry relative="1" as="geometry">
            <Array as="points">
              <mxPoint x="640" y="700" />
              <mxPoint x="380" y="700" />
            </Array>
          </mxGeometry>
        </mxCell>
        <mxCell id="qzfSgBD3QP0IytyJ2jAo-111" style="edgeStyle=orthogonalEdgeStyle;rounded=0;orthogonalLoop=1;jettySize=auto;html=1;exitX=0.25;exitY=0;exitDx=0;exitDy=0;entryX=0;entryY=0.75;entryDx=0;entryDy=0;" edge="1" parent="1" source="qzfSgBD3QP0IytyJ2jAo-7" target="qzfSgBD3QP0IytyJ2jAo-3">
          <mxGeometry relative="1" as="geometry" />
        </mxCell>
        <mxCell id="qzfSgBD3QP0IytyJ2jAo-7" value="Страница добавления глав" style="rounded=1;whiteSpace=wrap;html=1;fontFamily=Open Sans;fontSource=https%3A%2F%2Ffonts.googleapis.com%2Fcss%3Ffamily%3DOpen%2BSans;" vertex="1" parent="1">
          <mxGeometry x="580" y="590" width="120" height="60" as="geometry" />
        </mxCell>
        <mxCell id="qzfSgBD3QP0IytyJ2jAo-104" style="edgeStyle=orthogonalEdgeStyle;rounded=0;orthogonalLoop=1;jettySize=auto;html=1;exitX=1;exitY=0.5;exitDx=0;exitDy=0;entryX=1;entryY=0.75;entryDx=0;entryDy=0;" edge="1" parent="1" source="qzfSgBD3QP0IytyJ2jAo-10" target="qzfSgBD3QP0IytyJ2jAo-3">
          <mxGeometry relative="1" as="geometry">
            <Array as="points">
              <mxPoint x="880" y="620" />
              <mxPoint x="880" y="535" />
            </Array>
          </mxGeometry>
        </mxCell>
        <mxCell id="qzfSgBD3QP0IytyJ2jAo-10" value="Редактор отрывков" style="rounded=1;whiteSpace=wrap;html=1;fontFamily=Open Sans;fontSource=https%3A%2F%2Ffonts.googleapis.com%2Fcss%3Ffamily%3DOpen%2BSans;" vertex="1" parent="1">
          <mxGeometry x="737" y="590" width="120" height="60" as="geometry" />
        </mxCell>
        <mxCell id="qzfSgBD3QP0IytyJ2jAo-108" style="edgeStyle=orthogonalEdgeStyle;rounded=0;orthogonalLoop=1;jettySize=auto;html=1;exitX=0.25;exitY=1;exitDx=0;exitDy=0;entryX=0.5;entryY=0;entryDx=0;entryDy=0;" edge="1" parent="1" source="qzfSgBD3QP0IytyJ2jAo-70" target="qzfSgBD3QP0IytyJ2jAo-9">
          <mxGeometry relative="1" as="geometry" />
        </mxCell>
        <mxCell id="qzfSgBD3QP0IytyJ2jAo-109" style="edgeStyle=orthogonalEdgeStyle;rounded=0;orthogonalLoop=1;jettySize=auto;html=1;exitX=0.75;exitY=1;exitDx=0;exitDy=0;entryX=0.5;entryY=0;entryDx=0;entryDy=0;" edge="1" parent="1" source="qzfSgBD3QP0IytyJ2jAo-70" target="qzfSgBD3QP0IytyJ2jAo-8">
          <mxGeometry relative="1" as="geometry" />
        </mxCell>
        <mxCell id="qzfSgBD3QP0IytyJ2jAo-70" value="Шапка сайта" style="swimlane;whiteSpace=wrap;html=1;" vertex="1" parent="1">
          <mxGeometry x="220" y="340" width="320" height="230" as="geometry" />
        </mxCell>
        <mxCell id="qzfSgBD3QP0IytyJ2jAo-11" value="Поиск публичных проектов" style="rounded=1;whiteSpace=wrap;html=1;fontFamily=Open Sans;fontSource=https%3A%2F%2Ffonts.googleapis.com%2Fcss%3Ffamily%3DOpen%2BSans;" vertex="1" parent="qzfSgBD3QP0IytyJ2jAo-70">
          <mxGeometry x="20" y="150" width="120" height="60" as="geometry" />
        </mxCell>
        <mxCell id="qzfSgBD3QP0IytyJ2jAo-1" value="Главная страница" style="rounded=1;whiteSpace=wrap;html=1;fontFamily=Open Sans;fontSource=https%3A%2F%2Ffonts.googleapis.com%2Fcss%3Ffamily%3DOpen%2BSans;" vertex="1" parent="qzfSgBD3QP0IytyJ2jAo-70">
          <mxGeometry x="20" y="50" width="120" height="60" as="geometry" />
        </mxCell>
        <mxCell id="qzfSgBD3QP0IytyJ2jAo-5" value="Список проектов пользователя" style="rounded=1;whiteSpace=wrap;html=1;fontFamily=Open Sans;fontSource=https%3A%2F%2Ffonts.googleapis.com%2Fcss%3Ffamily%3DOpen%2BSans;" vertex="1" parent="qzfSgBD3QP0IytyJ2jAo-70">
          <mxGeometry x="180" y="50" width="120" height="60" as="geometry" />
        </mxCell>
        <mxCell id="qzfSgBD3QP0IytyJ2jAo-2" value="Личный кабинет пользователя" style="rounded=1;whiteSpace=wrap;html=1;fontFamily=Open Sans;fontSource=https%3A%2F%2Ffonts.googleapis.com%2Fcss%3Ffamily%3DOpen%2BSans;" vertex="1" parent="qzfSgBD3QP0IytyJ2jAo-70">
          <mxGeometry x="180" y="150" width="120" height="60" as="geometry" />
        </mxCell>
        <mxCell id="qzfSgBD3QP0IytyJ2jAo-83" style="edgeStyle=orthogonalEdgeStyle;rounded=0;orthogonalLoop=1;jettySize=auto;html=1;exitX=1;exitY=0.75;exitDx=0;exitDy=0;entryX=0;entryY=0.5;entryDx=0;entryDy=0;" edge="1" parent="1" source="qzfSgBD3QP0IytyJ2jAo-70" target="qzfSgBD3QP0IytyJ2jAo-3">
          <mxGeometry relative="1" as="geometry">
            <mxPoint x="530" y="520" as="sourcePoint" />
            <Array as="points">
              <mxPoint x="540" y="520" />
            </Array>
          </mxGeometry>
        </mxCell>
        <mxCell id="qzfSgBD3QP0IytyJ2jAo-93" style="edgeStyle=orthogonalEdgeStyle;rounded=0;orthogonalLoop=1;jettySize=auto;html=1;exitX=0.5;exitY=0;exitDx=0;exitDy=0;entryX=1;entryY=0;entryDx=0;entryDy=0;" edge="1" parent="1" source="qzfSgBD3QP0IytyJ2jAo-84" target="qzfSgBD3QP0IytyJ2jAo-70">
          <mxGeometry relative="1" as="geometry">
            <Array as="points">
              <mxPoint x="760" y="370" />
              <mxPoint x="760" y="320" />
              <mxPoint x="540" y="320" />
            </Array>
          </mxGeometry>
        </mxCell>
        <mxCell id="qzfSgBD3QP0IytyJ2jAo-97" style="edgeStyle=orthogonalEdgeStyle;rounded=0;orthogonalLoop=1;jettySize=auto;html=1;exitX=0.5;exitY=1;exitDx=0;exitDy=0;entryX=0.5;entryY=0;entryDx=0;entryDy=0;" edge="1" parent="1" source="qzfSgBD3QP0IytyJ2jAo-84" target="qzfSgBD3QP0IytyJ2jAo-3">
          <mxGeometry relative="1" as="geometry" />
        </mxCell>
        <mxCell id="qzfSgBD3QP0IytyJ2jAo-84" value="Страница создания проекта" style="rounded=1;whiteSpace=wrap;html=1;fontFamily=Open Sans;fontSource=https%3A%2F%2Ffonts.googleapis.com%2Fcss%3Ffamily%3DOpen%2BSans;" vertex="1" parent="1">
          <mxGeometry x="660" y="370" width="120" height="60" as="geometry" />
        </mxCell>
        <mxCell id="qzfSgBD3QP0IytyJ2jAo-85" style="edgeStyle=orthogonalEdgeStyle;rounded=0;orthogonalLoop=1;jettySize=auto;html=1;entryX=0;entryY=0.5;entryDx=0;entryDy=0;" edge="1" parent="1" target="qzfSgBD3QP0IytyJ2jAo-84">
          <mxGeometry relative="1" as="geometry">
            <mxPoint x="540" y="400" as="sourcePoint" />
            <Array as="points">
              <mxPoint x="580" y="400" />
              <mxPoint x="580" y="400" />
            </Array>
          </mxGeometry>
        </mxCell>
        <mxCell id="qzfSgBD3QP0IytyJ2jAo-9" value="Вход в аккаунт" style="rounded=1;whiteSpace=wrap;html=1;fontFamily=Open Sans;fontSource=https%3A%2F%2Ffonts.googleapis.com%2Fcss%3Ffamily%3DOpen%2BSans;" vertex="1" parent="1">
          <mxGeometry x="240" y="590" width="120" height="60" as="geometry" />
        </mxCell>
        <mxCell id="qzfSgBD3QP0IytyJ2jAo-8" value="Регистрация" style="rounded=1;whiteSpace=wrap;html=1;fontFamily=Open Sans;fontSource=https%3A%2F%2Ffonts.googleapis.com%2Fcss%3Ffamily%3DOpen%2BSans;" vertex="1" parent="1">
          <mxGeometry x="400" y="590" width="120" height="60" as="geometry" />
        </mxCell>
        <mxCell id="qzfSgBD3QP0IytyJ2jAo-100" style="edgeStyle=orthogonalEdgeStyle;rounded=0;orthogonalLoop=1;jettySize=auto;html=1;exitX=1;exitY=0.5;exitDx=0;exitDy=0;entryX=1;entryY=0.75;entryDx=0;entryDy=0;" edge="1" parent="1" source="qzfSgBD3QP0IytyJ2jAo-9" target="qzfSgBD3QP0IytyJ2jAo-1">
          <mxGeometry relative="1" as="geometry">
            <Array as="points">
              <mxPoint x="370" y="619" />
              <mxPoint x="370" y="435" />
            </Array>
          </mxGeometry>
        </mxCell>
        <mxCell id="qzfSgBD3QP0IytyJ2jAo-101" style="edgeStyle=orthogonalEdgeStyle;rounded=0;orthogonalLoop=1;jettySize=auto;html=1;exitX=0;exitY=0.5;exitDx=0;exitDy=0;entryX=1;entryY=0.25;entryDx=0;entryDy=0;" edge="1" parent="1" source="qzfSgBD3QP0IytyJ2jAo-8" target="qzfSgBD3QP0IytyJ2jAo-1">
          <mxGeometry relative="1" as="geometry">
            <Array as="points">
              <mxPoint x="390" y="620" />
              <mxPoint x="390" y="405" />
            </Array>
          </mxGeometry>
        </mxCell>
        <mxCell id="qzfSgBD3QP0IytyJ2jAo-110" value="&lt;h1&gt;Шапка сайта&lt;/h1&gt;&lt;div&gt;Представляет собой решетчатую структуру. Все страницы в шапке доступны на&lt;br&gt;всех страницах сайта, кроме редактора отрывков.&lt;/div&gt;" style="text;html=1;strokeColor=none;fillColor=none;spacing=5;spacingTop=-20;whiteSpace=wrap;overflow=hidden;rounded=0;fontFamily=Open Sans;fontSource=https%3A%2F%2Ffonts.googleapis.com%2Fcss%3Ffamily%3DOpen%2BSans;rotation=0;" vertex="1" parent="1">
          <mxGeometry x="214" y="230" width="280" height="110" as="geometry" />
        </mxCell>
        <mxCell id="qzfSgBD3QP0IytyJ2jAo-112" value="&lt;h1&gt;Страницы проекта&lt;/h1&gt;&lt;div&gt;Смешанная структура. Со всех этих страниц можно перейти на страницы в шапке, кроме редактора отрывков. При создании проекта пользователь попадает на страницу созданного проекта, при добавлении глав пользователь возвращается к проекту. Со страницы проекта можно попасть в редактор глав. Из редактора можно вернуться к странице проекта.&lt;/div&gt;" style="text;html=1;strokeColor=none;fillColor=none;spacing=5;spacingTop=-20;whiteSpace=wrap;overflow=hidden;rounded=0;fontFamily=Open Sans;fontSource=https%3A%2F%2Ffonts.googleapis.com%2Fcss%3Ffamily%3DOpen%2BSans;" vertex="1" parent="1">
          <mxGeometry x="843" y="290" width="227" height="240" as="geometry" />
        </mxCell>
      </root>
    </mxGraphModel>
  </diagram>
</mxfile>
